<?xml version="1.0" encoding="UTF-8"?><svg id="Layer_2" xmlns="http://www.w3.org/2000/svg" xmlns:xlink="http://www.w3.org/1999/xlink" viewBox="0 0 150.47 35.9"><defs><style>.cls-1{fill:url(#linear-gradient-2);}.cls-2{clip-path:url(#clippath);}.cls-3{fill:none;}.cls-4{fill:url(#linear-gradient-3);}.cls-5{fill:url(#linear-gradient);}.cls-6{fill:url(#linear-gradient-4);}</style><linearGradient id="linear-gradient" x1="0" y1="17.95" x2="150.47" y2="17.95" gradientTransform="matrix(1, 0, 0, 1, 0, 0)" gradientUnits="userSpaceOnUse"><stop offset="0" stop-color="#0012a1"/><stop offset="1" stop-color="#f0f"/></linearGradient><clipPath id="clippath"><rect class="cls-3" x="58.79" width="91.69" height="35.9"/></clipPath><linearGradient id="linear-gradient-2" x1="973.59" y1="47.96" x2="923.24" y2="110.54" gradientTransform="translate(-817.67 -70.46)" gradientUnits="userSpaceOnUse"><stop offset="0" stop-color="#ff7500"/><stop offset="1" stop-color="#f0f"/></linearGradient><linearGradient id="linear-gradient-3" x1="926.91" y1="110" x2="889.76" y2="22.6" gradientTransform="translate(-817.67 -70.46)" xlink:href="#linear-gradient"/><linearGradient id="linear-gradient-4" x1="935.35" y1="109.02" x2="917.08" y2="63.34" gradientTransform="translate(-817.67 -70.46)" gradientUnits="userSpaceOnUse"><stop offset="0" stop-color="#810083"/><stop offset=".39" stop-color="#b60076"/><stop offset="1" stop-color="#ff7500"/></linearGradient></defs><g id="Layer_1-2"><g><rect class="cls-5" width="150.47" height="35.9"/><g class="cls-2"><g><path class="cls-1" d="M160.77-29.82s5.7,47.62-9.06,66.79c-14.75,19.17-36.45,22.35-51.33,10.89-14.88-11.46-17.31-33.21-2.56-52.38,14.75-19.17,62.95-25.3,62.95-25.3Z"/><path class="cls-4" d="M66.73-23.51s43.18,3.37,57.9,21.08c14.72,17.7,12.04,37.82-1.71,49.25-13.75,11.43-33.36,9.85-48.08-7.86-14.72-17.7-8.12-62.47-8.12-62.47Z"/><path class="cls-6" d="M97.82-4.52c-14.75,19.17-12.32,40.92,2.56,52.38,3.17,2.44,6.66,4.21,10.32,5.31,4.36-1.13,8.51-3.26,12.23-6.35,13.75-11.43,16.43-31.55,1.71-49.25-3.86-4.64-9.67-8.29-16.15-11.15-4.31,2.63-8.03,5.64-10.67,9.06Z"/></g></g></g></g></svg>