<?xml version="1.0" encoding="UTF-8"?><svg id="Layer_2" xmlns="http://www.w3.org/2000/svg" xmlns:xlink="http://www.w3.org/1999/xlink" viewBox="0 0 11.44 11.45"><defs><style>.cls-1{fill:url(#linear-gradient-2);}.cls-2{fill:url(#linear-gradient);}</style><linearGradient id="linear-gradient" x1="0" y1="5.72" x2="11.44" y2="5.72" gradientTransform="matrix(1, 0, 0, 1, 0, 0)" gradientUnits="userSpaceOnUse"><stop offset="0" stop-color="#b62648"/><stop offset=".54" stop-color="#e41c24"/><stop offset="1" stop-color="#ff7500"/></linearGradient><linearGradient id="linear-gradient-2" x1="3.22" y1="4.61" x2="7.85" y2="4.61" xlink:href="#linear-gradient"/></defs><g id="Layer_1-2"><g><path class="cls-2" d="M5.73,0h-.03c-1.5,0-2.92,.59-4,1.66C.61,2.74,0,4.18,0,5.72c0,3.13,2.55,5.7,5.7,5.73h.06c1.49,0,2.9-.58,3.98-1.64,1.1-1.09,1.71-2.54,1.72-4.09,0-3.13-2.55-5.7-5.71-5.71ZM2.5,9.07c.38-.64,.93-.96,1.64-.98,.56-.01,1.1-.02,1.62-.02s1.03,0,1.52,.02c.79,.02,1.37,.4,1.73,1.14-.97,.88-2.05,1.31-3.3,1.31h-.04c-1.15,0-2.2-.41-3.12-1.19-.12-.1-.13-.16-.06-.29Zm4.82-1.88c-.54,0-1.08-.01-1.61-.01s-1.07,0-1.59,.02c-.92,.02-1.67,.41-2.23,1.18-.03,.03-.05,.07-.08,.1-1.15-1.4-1.38-4,.26-5.89C3.82,.57,6.86,.34,8.86,2.07c1.64,1.42,2.39,4.26,.78,6.42-.04-.05-.07-.1-.1-.14-.56-.75-1.3-1.14-2.21-1.15Z"/><path class="cls-1" d="M5.53,2.3c-1.27,0-2.31,1.04-2.31,2.31s1.04,2.31,2.31,2.31,2.31-1.04,2.31-2.31-1.04-2.31-2.31-2.31Zm1.43,2.31c0,.79-.64,1.43-1.43,1.43s-1.43-.64-1.43-1.43,.64-1.43,1.43-1.43,1.43,.64,1.43,1.43Z"/></g></g></svg>