<?xml version="1.0" encoding="UTF-8"?><svg id="Layer_2" xmlns="http://www.w3.org/2000/svg" xmlns:xlink="http://www.w3.org/1999/xlink" viewBox="0 0 13.61 13.62"><defs><style>.cls-1{fill:url(#linear-gradient-2);}.cls-2{fill:url(#linear-gradient-3);}.cls-3{fill:url(#linear-gradient);}.cls-4{fill:url(#linear-gradient-4);}</style><linearGradient id="linear-gradient" x1=".17" y1="8.58" x2="13.43" y2="8.58" gradientTransform="matrix(1, 0, 0, 1, 0, 0)" gradientUnits="userSpaceOnUse"><stop offset="0" stop-color="#b62648"/><stop offset=".54" stop-color="#e41c24"/><stop offset="1" stop-color="#ff7500"/></linearGradient><linearGradient id="linear-gradient-2" x1="0" y1="8.58" x2="13.61" y2="8.58" xlink:href="#linear-gradient"/><linearGradient id="linear-gradient-3" x1=".62" y1="3.39" x2="13" y2="3.39" xlink:href="#linear-gradient"/><linearGradient id="linear-gradient-4" x1=".45" y1="3.39" x2="13.17" y2="3.39" xlink:href="#linear-gradient"/></defs><g id="Layer_1-2"><g><g><path class="cls-3" d="M13.13,7.48c-.97,0-1.94,0-2.91,0-.25,0-.32,.06-.32,.32v5.2h-1.33V4.03c0-.24-.07-.31-.31-.31-.96,0-1.92,0-2.89,0-.28,0-.34,.06-.34,.34V13h-1.33v-.18c0-1.97,0-3.94,0-5.91,0-.25-.06-.32-.32-.32-.97,0-1.94,0-2.91,0-.23,0-.3,.07-.3,.31v6.24c0,.23,.07,.3,.31,.3,4.22,0,8.43,0,12.65,0,.23,0,.3-.07,.3-.3,0-1.79,0-3.57,0-5.36,0-.23-.07-.3-.3-.3ZM3.26,12.99H.62V7.04H3.26v5.95Zm4.86,0h-2.63V4.18h2.63V13Zm4.87,0h-2.64V7.93h2.64v5.06Z"/><path class="cls-1" d="M13.13,13.62H.48c-.33,0-.48-.15-.48-.48V6.9c0-.33,.15-.48,.48-.48H3.39c.35,0,.5,.14,.5,.49v5.91h.98V4.06c0-.38,.13-.51,.51-.51h2.89c.34,0,.49,.14,.49,.48V12.82h.98V7.8c0-.35,.14-.49,.49-.49h2.91c.33,0,.48,.15,.48,.48,0,1.79,0,3.57,0,5.36,0,.33-.15,.48-.48,.48ZM.36,13.26s.03,.01,.12,.01H13.13c.09,0,.11-.01,.12-.01,0,0,.01-.03,.01-.12,0-1.79,0-3.57,0-5.36,0-.09-.01-.11-.01-.12h0s-.03-.01-.11-.01h-2.91c-.1,0-.13,.01-.13,.01h0s0,.03,0,.13v5.38h-1.67V4.03c0-.1-.01-.12-.01-.12h0s-.03-.01-.12-.01h-2.89c-.12,0-.15,.01-.16,.02h0s0,.03,0,.15V13.17h-1.67V6.91c0-.1-.01-.13-.01-.13,0,0-.01-.01-.13-.01H.48c-.09,0-.11,.01-.12,.01H.36s-.01,.02-.01,.12v6.24c0,.09,.01,.11,.01,.12h0Zm7.93-.09h-2.98V4h2.98V13.17Zm-2.63-.35h2.28V4.35h-2.28V12.82Zm7.5,.35h-2.99V7.76h2.99v5.41Zm-2.64-.35h2.29v-4.71h-2.29v4.71Zm-7.09,.35H.45V6.87H3.43v6.3Zm-2.63-.35H3.08V7.22H.8v5.6Z"/></g><g><path class="cls-2" d="M1.35,5.57c.49,.25,.98,.2,1.41-.15,.44-.35,.59-.82,.45-1.37-.02-.09,0-.13,.07-.17,.43-.26,.85-.53,1.28-.79,.4-.25,.8-.49,1.2-.74,.25,.3,.57,.47,.95,.49,.39,.03,.72-.11,1.01-.37,.92,.74,1.84,1.47,2.75,2.2-.35,.78,.03,1.46,.51,1.75,.55,.33,1.27,.21,1.68-.27,.42-.5,.43-1.22,.02-1.71-.2-.25-.46-.4-.78-.46-.45-.08-.83,.05-1.17,.34-.92-.74-1.83-1.46-2.73-2.18,.04-.22,.11-.4,.11-.59,0-.56-.24-.98-.74-1.22-.5-.24-.98-.18-1.41,.16-.43,.35-.58,.82-.44,1.36,.02,.09,0,.13-.07,.17-.32,.19-.63,.39-.94,.58-.51,.32-1.02,.63-1.54,.96-.04-.05-.08-.1-.12-.13-.42-.37-.89-.47-1.41-.26-.52,.21-.8,.62-.82,1.17-.02,.56,.23,.98,.73,1.23Zm10.31-1.18c.49,0,.88,.4,.88,.89,0,.49-.4,.88-.89,.88-.48,0-.87-.4-.87-.88,0-.49,.4-.89,.89-.88ZM6.8,.63c.49,0,.89,.4,.89,.88,0,.49-.4,.88-.89,.88-.49,0-.88-.4-.88-.89,0-.48,.4-.87,.88-.88ZM1.93,3.5c.49,0,.89,.39,.89,.88,0,.49-.4,.89-.88,.89-.49,0-.89-.4-.88-.89,0-.48,.39-.88,.88-.88Z"/><path class="cls-4" d="M11.67,6.78c-.26,0-.53-.07-.77-.21-.55-.32-.92-1.04-.63-1.84l-2.54-2.03c-.31,.24-.66,.34-1.02,.32-.37-.03-.7-.17-.96-.44l-1.43,.89c-.3,.19-.61,.38-.91,.56,.14,.62-.04,1.15-.52,1.54-.48,.38-1.05,.45-1.6,.17h0c-.56-.28-.85-.77-.83-1.39,.02-.62,.35-1.09,.93-1.33,.56-.23,1.11-.13,1.59,.29,.01,.01,.03,.03,.04,.04l1.69-1.05c.22-.14,.44-.27,.66-.41-.14-.62,.04-1.14,.51-1.53,.48-.39,1.04-.46,1.6-.19,.56,.27,.85,.75,.84,1.38,0,.15-.03,.28-.07,.42,0,.03-.01,.06-.02,.09l2.53,2.02c.37-.27,.78-.37,1.2-.29,.35,.07,.65,.24,.88,.52,.47,.56,.46,1.37-.02,1.94-.29,.34-.71,.52-1.13,.52ZM7.72,2.24l2.97,2.38-.05,.12c-.31,.69,.01,1.27,.44,1.52,.48,.28,1.11,.18,1.46-.23,.37-.43,.38-1.06,.02-1.49-.18-.22-.4-.35-.68-.4-.37-.07-.71,.03-1.03,.3l-.11,.1-2.92-2.34,.02-.1c.01-.07,.03-.14,.05-.21,.03-.13,.06-.24,.06-.35,0-.49-.21-.85-.65-1.06-.44-.21-.85-.16-1.22,.14-.37,.3-.5,.7-.39,1.18,.04,.16,0,.28-.15,.37-.22,.13-.45,.27-.67,.41l-1.94,1.2-.14-.16s-.04-.05-.07-.07c-.38-.33-.78-.41-1.23-.23-.45,.19-.69,.53-.71,1.02-.02,.49,.2,.85,.64,1.07,.43,.22,.85,.17,1.22-.13,.38-.3,.51-.7,.39-1.19-.04-.16,.01-.28,.15-.36,.31-.19,.61-.38,.92-.57l1.68-1.04,.1,.11c.23,.27,.5,.41,.83,.43,.33,.02,.61-.08,.88-.32l.11-.1Zm3.94,4.09h0c-.58,0-1.05-.48-1.05-1.06,0-.28,.11-.55,.31-.75,.2-.2,.47-.31,.75-.31h0c.28,0,.55,.11,.75,.31,.2,.2,.31,.47,.31,.75,0,.28-.11,.55-.31,.75-.2,.2-.46,.31-.75,.31Zm0-1.77c-.19,0-.37,.07-.5,.21s-.21,.31-.21,.5c0,.39,.32,.7,.7,.71h0c.19,0,.37-.07,.5-.21,.14-.13,.21-.31,.21-.5,0-.19-.07-.37-.21-.5s-.31-.21-.5-.21h0ZM1.94,5.44c-.28,0-.55-.11-.75-.31-.2-.2-.31-.47-.31-.75,0-.58,.47-1.05,1.05-1.06h0c.28,0,.54,.11,.75,.31,.2,.2,.31,.46,.31,.75,0,.28-.11,.55-.31,.75-.2,.2-.47,.31-.75,.31Zm0-1.77c-.39,0-.7,.32-.7,.71,0,.19,.07,.37,.21,.5,.27,.27,.73,.27,1,0,.13-.13,.21-.31,.21-.5,0-.19-.08-.37-.21-.5-.13-.13-.31-.21-.5-.21h0Zm4.87-1.11h0c-.28,0-.55-.11-.75-.31-.2-.2-.31-.47-.31-.75,0-.58,.48-1.05,1.06-1.05h0c.28,0,.55,.11,.75,.31,.2,.2,.31,.47,.31,.75s-.11,.55-.31,.75c-.2,.2-.47,.31-.75,.31Zm0-1.77c-.39,0-.7,.32-.71,.7,0,.19,.07,.37,.21,.51,.13,.13,.31,.21,.5,.21h0c.19,0,.37-.07,.5-.21,.13-.13,.21-.31,.21-.5s-.07-.37-.21-.5c-.13-.13-.31-.21-.5-.21h0Z"/></g></g></g></svg>