<?xml version="1.0" encoding="UTF-8"?><svg id="Layer_2" xmlns="http://www.w3.org/2000/svg" xmlns:xlink="http://www.w3.org/1999/xlink" viewBox="0 0 12.23 12.08"><defs><style>.cls-1{fill:url(#linear-gradient-2);}.cls-2{fill:url(#linear-gradient);}</style><linearGradient id="linear-gradient" x1="0" y1="6.04" x2="5.47" y2="6.04" gradientTransform="matrix(1, 0, 0, 1, 0, 0)" gradientUnits="userSpaceOnUse"><stop offset="0" stop-color="#b62648"/><stop offset=".54" stop-color="#e41c24"/><stop offset="1" stop-color="#ff7500"/></linearGradient><linearGradient id="linear-gradient-2" x1="3.46" y1="6.04" x2="12.23" y2="6.04" xlink:href="#linear-gradient"/></defs><g id="Layer_1-2"><g><path class="cls-2" d="M1.11,10.98c.08,0,.15,0,.22,0,1.19,0,2.37,0,3.56,0,.35,0,.59,.23,.59,.55,0,.31-.24,.54-.58,.54-1.27,0-2.53,0-3.8,0C.48,12.07,0,11.59,0,10.97,0,7.33,0,4.75,0,1.11,0,.48,.48,0,1.11,0,2.37,0,3.63,0,4.89,0c.35,0,.59,.23,.59,.55,0,.32-.25,.54-.6,.54-1.19,0-2.38,0-3.57,0h-.2V10.98Z"/><path class="cls-1" d="M10.36,6.59h-.23c-2.02,0-4.05,0-6.07,0-.43,0-.7-.35-.56-.73,.08-.22,.27-.36,.51-.36,.18,0,.36,0,.55,0,1.86,0,3.72,0,5.57,0h.22c-.06-.07-.1-.11-.14-.16-.59-.59-1.18-1.17-1.76-1.77-.32-.32-.19-.82,.23-.93,.22-.06,.4,.02,.56,.18,.66,.67,1.33,1.33,2,2,.27,.27,.55,.55,.82,.82,.25,.25,.25,.57,0,.82-.94,.94-1.88,1.88-2.82,2.82-.15,.15-.32,.23-.54,.19-.21-.05-.35-.18-.41-.39-.06-.21,0-.39,.15-.55,.42-.42,.84-.84,1.26-1.26,.21-.21,.42-.42,.67-.67Z"/></g></g></svg>