<svg id="Layer_1" data-name="Layer 1" xmlns="http://www.w3.org/2000/svg" xmlns:xlink="http://www.w3.org/1999/xlink" viewBox="0 0 895.73 369.88"><defs><style>.cls-1{fill:none;}.cls-2{opacity:0.68;}.cls-3{clip-path:url(#clip-path);}.cls-13,.cls-14,.cls-4,.cls-5{opacity:0.75;}.cls-4{fill:url(#linear-gradient);}.cls-5{fill:url(#linear-gradient-2);}.cls-6{opacity:0.2;}.cls-7{clip-path:url(#clip-path-2);}.cls-8{opacity:0.82;}.cls-9{fill:url(#linear-gradient-3);}.cls-10{fill:url(#linear-gradient-4);}.cls-11{fill:url(#linear-gradient-5);}.cls-12{clip-path:url(#clip-path-3);}.cls-13{fill:url(#linear-gradient-6);}.cls-14{fill:url(#linear-gradient-7);}</style><clipPath id="clip-path"><rect class="cls-1" x="1074.85" y="-0.19" width="960.1" height="458.17"/></clipPath><linearGradient id="linear-gradient" x1="761.25" y1="228.69" x2="2300.61" y2="228.69" gradientUnits="userSpaceOnUse"><stop offset="0.26" stop-color="#a8a8a9" stop-opacity="0"/><stop offset="1" stop-color="#fff"/></linearGradient><linearGradient id="linear-gradient-2" x1="411.45" y1="230.67" x2="2028.21" y2="230.67" gradientUnits="userSpaceOnUse"><stop offset="0.68" stop-color="#a8a8a9" stop-opacity="0"/><stop offset="1" stop-color="#fff"/></linearGradient><clipPath id="clip-path-2"><rect class="cls-1" x="191.55" y="-92.43" width="704.18" height="462.32"/></clipPath><linearGradient id="linear-gradient-3" x1="1805.58" y1="108.76" x2="1547.15" y2="429.96" gradientTransform="translate(-817.67 -70.46)" gradientUnits="userSpaceOnUse"><stop offset="0" stop-color="#ff7500"/><stop offset="1" stop-color="#f0f"/></linearGradient><linearGradient id="linear-gradient-4" x1="1565.99" y1="427.17" x2="1375.3" y2="-21.43" gradientTransform="translate(-817.67 -70.46)" gradientUnits="userSpaceOnUse"><stop offset="0" stop-color="#0012a3"/><stop offset="1" stop-color="#f0f"/></linearGradient><linearGradient id="linear-gradient-5" x1="1609.29" y1="422.14" x2="1515.51" y2="187.68" gradientTransform="translate(-817.67 -70.46)" gradientUnits="userSpaceOnUse"><stop offset="0" stop-color="#830085"/><stop offset="0.39" stop-color="#b80076"/><stop offset="1" stop-color="#ff7500"/></linearGradient><clipPath id="clip-path-3"><rect class="cls-1" x="-64.56" y="372.39" width="960.21" height="224.65"/></clipPath><linearGradient id="linear-gradient-6" x1="-42.98" y1="496.22" x2="895.65" y2="496.22" gradientUnits="userSpaceOnUse"><stop offset="0.01" stop-color="#dededf" stop-opacity="0"/><stop offset="1" stop-color="#fff"/></linearGradient><linearGradient id="linear-gradient-7" x1="-64.56" y1="498.07" x2="921.27" y2="498.07" xlink:href="#linear-gradient-6"/></defs><g class="cls-2"><g class="cls-3"><path class="cls-4" d="M2300.61,471.17H761.25S1045,36.31,1644.74-13.78h655.87Z"/><path class="cls-5" d="M411.45-11.8H2028.21s-248.57,434.86-773.88,485H411.45Z"/></g></g><g class="cls-6"><g class="cls-7"><g class="cls-8"><path class="cls-9" d="M1012.79.69S1042,245.13,966.3,343.51,779.2,458.22,702.81,399.42s-88.87-170.48-13.14-268.86S1012.79.69,1012.79.69Z"/><path class="cls-10" d="M530.1,33.1S751.74,50.41,827.3,141.29s61.81,194.13-8.75,252.8-171.22,50.54-246.78-40.33S530.1,33.1,530.1,33.1Z"/><path class="cls-11" d="M689.67,130.56c-75.73,98.38-63.25,210.05,13.14,268.86a164.06,164.06,0,0,0,53,27.26,161.09,161.09,0,0,0,62.79-32.59c70.56-58.67,84.31-161.93,8.75-252.8C807.51,117.48,777.65,98.76,744.41,84,722.3,97.55,703.21,113,689.67,130.56Z"/></g></g></g><g class="cls-12"><path class="cls-13" d="M895.65,723.09H-43s173-406.89,538.71-453.75H895.65Z"/><path class="cls-14" d="M-64.56,271.19H921.27S769.71,678.08,449.39,724.94H-64.56Z"/></g></svg>